<?xml version="1.0" encoding="UTF-8" standalone="no"?>
<svg
   xmlns:dc="http://purl.org/dc/elements/1.1/"
   xmlns:cc="http://creativecommons.org/ns#"
   xmlns:rdf="http://www.w3.org/1999/02/22-rdf-syntax-ns#"
   xmlns:svg="http://www.w3.org/2000/svg"
   xmlns="http://www.w3.org/2000/svg"
   xmlns:sodipodi="http://sodipodi.sourceforge.net/DTD/sodipodi-0.dtd"
   xmlns:inkscape="http://www.inkscape.org/namespaces/inkscape"
   width="297mm"
   height="210mm"
   viewBox="0 0 297 210"
   version="1.1"
   id="svg8"
   inkscape:version="1.0.1 (3bc2e813f5, 2020-09-07)"
   sodipodi:docname="logo.svg">
  <defs
     id="defs2">
    <rect
       x="80.886902"
       y="188.9881"
       width="190.5"
       height="86.178574"
       id="rect1085" />
  </defs>
  <sodipodi:namedview
     id="base"
     pagecolor="#ffffff"
     bordercolor="#666666"
     borderopacity="1.0"
     inkscape:pageopacity="0.0"
     inkscape:pageshadow="2"
     inkscape:zoom="0.35"
     inkscape:cx="457.07478"
     inkscape:cy="793.85453"
     inkscape:document-units="mm"
     inkscape:current-layer="layer1"
     inkscape:document-rotation="0"
     showgrid="false"
     inkscape:window-width="1920"
     inkscape:window-height="1017"
     inkscape:window-x="-8"
     inkscape:window-y="-8"
     inkscape:window-maximized="1" />
  <metadata
     id="metadata5">
    <rdf:RDF>
      <cc:Work
         rdf:about="">
        <dc:format>image/svg+xml</dc:format>
        <dc:type
           rdf:resource="http://purl.org/dc/dcmitype/StillImage" />
        <dc:title></dc:title>
      </cc:Work>
    </rdf:RDF>
  </metadata>
  <g
     inkscape:label="Calque 1"
     inkscape:groupmode="layer"
     id="layer1">
    <g
       id="g1726">
      <path
         id="path847"
         style="fill:#000000;stroke-width:0.264583"
         d="m 56.2611,52.153275 c -2.826015,-0.03427 -5.35756,1.605288 -7.669817,4.950085 -0.762412,1.10287 -1.766349,2.8255 -2.230872,3.82819 l -0.844909,1.823145 -2.645834,-0.640788 c -1.455208,-0.35253 -3.300677,-0.799148 -4.101041,-0.992188 -0.800365,-0.19305 -1.587574,-0.301412 -1.749764,-0.240812 -0.78022,0.29162 -1.195978,2.678079 -0.558622,3.20704 0.297664,0.247039 1.839701,0.61827 7.026444,1.69137 l 1.41025,0.291454 -0.171049,1.480529 c -0.455217,3.948322 1.345922,9.835822 3.598746,11.76414 1.94009,1.660641 5.903957,2.118635 8.316288,0.960665 1.929072,-0.925989 4.318373,-3.456959 5.556768,-5.885429 0.574795,-1.127159 1.124876,-2.049989 1.222148,-2.050521 0.429604,-0.0028 1.277956,1.866911 1.277956,2.81585 0,0.568909 0.186084,1.299337 0.412895,1.623157 0.277083,0.39559 0.498092,1.695374 0.674378,3.961514 0.280591,3.60693 0.985351,7.09568 1.809192,8.958109 0.552662,1.249392 1.832052,2.21647 2.933155,2.21847 0.753774,0.0011 4.336127,-2.042213 5.521108,-3.14916 l 0.776182,-0.724506 0.186033,1.854668 c 0.106321,1.058688 0.537031,2.718176 1.060403,4.106727 -0.385464,1.850383 -0.995659,4.076285 -1.944585,6.747386 0,0.2995 -2.229143,2.52905 -2.297017,2.52905 -0.06788,0 -0.123507,0.25029 -0.123507,0.55655 v 0.55708 l -0.524516,-0.0708 c -0.288501,-0.0391 -0.645961,-0.0956 -0.794784,-0.12557 -0.545282,-0.10985 -2.04543,0.20042 -2.918169,0.60409 -0.763529,0.35317 -1.916443,1.16768 -2.556949,1.80558 -1.114576,1.11002 -2.89665,3.47473 -3.445267,4.57181 -1.695087,3.38966 -2.470718,7.89152 -2.306836,13.39143 0.181547,6.0927 1.925453,12.27905 4.627624,16.41554 1.134083,1.73606 5.052459,5.18039 6.744808,5.92883 2.199182,0.97259 4.98365,0.50499 7.076054,-1.18804 1.993506,-1.61304 3.863792,-5.1086 4.769734,-8.9147 0.158609,-0.66637 0.311422,-1.23436 0.339515,-1.26245 0.02808,-0.028 1.602603,0.42287 3.499012,1.002 1.896404,0.57914 3.88816,1.167 4.426085,1.3069 1.114406,0.28981 1.869085,0.24594 2.411222,-0.14004 l 0.344164,-0.24495 0.624253,0.65991 c 0.815184,0.86194 0.888368,1.24348 0.527616,2.73988 -0.25092,1.04085 -0.300646,1.13935 -0.604615,1.20045 -0.877218,0.17628 -1.822484,1.26201 -2.2102,2.53782 -0.316134,1.04026 -0.28218,3.23318 0.0708,4.56304 0.467778,1.76234 1.349507,3.20628 2.275829,3.7269 0.748692,0.42079 2.070209,0.47113 2.785877,0.10645 0.62533,-0.31867 1.129639,-0.96337 1.521874,-1.9451 0.24384,-0.61031 0.27883,-0.91842 0.27957,-2.48615 0.001,-1.88134 -0.17344,-2.8067 -0.687302,-3.65559 -0.128124,-0.21167 -0.233061,-0.49973 -0.233061,-0.64027 0,-0.19984 0.579843,-2.20749 0.674893,-2.33681 0.0119,-0.0161 0.32538,0.0778 0.6966,0.20825 1.99935,0.70272 4.3115,0.59616 6.42235,-0.29507 0.16437,-0.0694 0.25542,0.0706 0.47542,0.73174 0.14956,0.44944 0.46779,1.07406 0.70745,1.38803 0.29312,0.384 0.61231,1.0969 0.97513,2.17868 0.29667,0.88449 0.53951,1.65018 0.53951,1.70119 0,0.0511 -0.23601,0.15613 -0.52452,0.23357 -0.9437,0.25325 -1.0662,0.3274 -0.99425,0.60255 0.0829,0.31686 0.50377,0.33051 1.81487,0.0594 0.75449,-0.15603 1.02632,-0.16584 1.37873,-0.0496 0.55428,0.18294 1.13626,0.076 1.71204,-0.31471 0.24743,-0.16791 0.54465,-0.30571 0.66043,-0.30644 0.11578,-8e-4 0.48325,-0.0844 0.81649,-0.18552 1.07958,-0.32749 1.36139,-0.26448 2.08721,0.46715 1.6049,1.61778 3.81614,1.13247 4.90358,-1.07642 l 0.3855,-0.78289 0.69918,-0.0848 c 1.24497,-0.15114 4.50791,-0.77617 6.11281,-1.17099 1.43631,-0.35333 1.5865,-0.36909 1.83606,-0.1943 0.39965,0.27994 1.3598,0.24905 1.63246,-0.0522 0.12055,-0.13321 0.42079,-0.30499 0.66714,-0.38189 0.24635,-0.0769 0.56324,-0.27608 0.70435,-0.44286 0.19503,-0.23047 0.44357,-0.32965 1.03611,-0.41342 0.85499,-0.12089 1.03694,-0.22842 0.96894,-0.5736 -0.0507,-0.25754 -0.52645,-0.28935 -1.67535,-0.11214 -0.60231,0.093 -0.64803,0.0823 -0.64803,-0.15141 0,-0.17815 0.30175,-0.45206 1.03508,-0.94 1.17099,-0.77915 2.83711,-2.28236 3.10576,-2.80189 0.0985,-0.19044 0.1788,-0.59691 0.1788,-0.90331 0,-0.52113 -0.055,-0.61401 -0.85266,-1.44384 l -0.85215,-0.88728 -0.95963,0.0723 c -0.84927,0.0643 -1.11331,0.15137 -2.29857,0.75862 -1.17653,0.6028 -1.34883,0.66008 -1.41645,0.47077 -0.0423,-0.11849 -0.24023,-0.6319 -0.43976,-1.14102 -0.63651,-1.62413 -2.97489,-7.95142 -4.47001,-12.09538 -0.796,-2.2062 -1.66419,-4.48414 -1.92909,-5.06223 -0.26489,-0.5781 -0.48162,-1.13733 -0.48162,-1.2423 0,-0.10503 -0.16922,-0.68727 -0.37621,-1.29398 -0.76185,-2.23311 -1.10087,-3.92491 -1.22886,-6.13347 -0.19214,-3.31565 -0.56845,-4.52378 -1.81281,-5.82239 -0.84735,-0.88427 -1.55659,-1.15562 -3.76204,-1.43867 -1.03157,-0.13236 -1.88593,-0.25352 -1.8986,-0.26923 -0.0128,-0.0157 -0.0598,-0.28273 -0.1049,-0.59376 l -1.01182,-1.89808 c -7.42799,-0.0712 -12.96581,1.55367 -16.496673,-4.715472 0.723556,-0.180644 1.285811,-1.034426 2.353863,-3.142443 1.15233,-2.274382 1.44983,-3.153365 1.69188,-4.996595 l 0.29404,-2.236555 1.35289,1.332735 c 3.95927,3.89967 10.5658,2.518696 13.24519,-2.768825 1.70458,-3.36383 1.86973,-6.896224 0.46354,-9.901203 -0.9403,-2.00937 -2.13709,-3.238637 -3.97341,-4.079337 -3.91198,-1.79096 -8.00248,-0.513991 -10.5332,3.28817 -1.02378,1.538121 -1.03542,1.545661 -2.48409,1.63866 -0.800362,0.0514 -1.602412,0.213516 -1.782318,0.360185 -0.384662,0.313589 -4.038515,-0.492451 -4.038515,-0.890903 0,-0.445939 1.287073,-1.54719 1.80816,-1.54719 0.712999,0 0.967327,-0.42757 1.338937,-2.248959 0.178136,-0.87313 0.450474,-1.914794 0.605131,-2.315104 0.207621,-0.53744 0.197511,-0.828833 -0.03928,-1.114144 -0.247618,-0.29835 -0.250745,-0.599705 -0.01241,-1.321885 0.24583,-0.744852 0.231204,-1.200319 -0.07286,-2.237589 -0.336135,-1.14663 -0.334592,-1.350064 0.01394,-1.698603 0.434152,-0.43415 0.244139,-1.906808 -0.209806,-1.626258 -0.141256,0.0873 -0.256834,-0.106574 -0.256834,-0.430465 0,-0.3239 -0.07733,-0.511312 -0.172082,-0.416511 -0.09475,0.09475 -0.329235,-0.0344 -0.520899,-0.286805 -0.196469,-0.25873 -0.351867,-0.320323 -0.356566,-0.141593 -0.0085,0.31964 -0.677198,0.302107 -2.703195,-0.06976 -0.546369,-0.10029 -1.353499,-0.04712 -1.835546,0.120922 -0.550799,0.19201 -0.95172,0.208416 -1.114661,0.04548 -0.34617,-0.34617 -1.530681,0.291659 -2.349727,1.265039 -0.357058,0.42434 -0.895141,0.849245 -1.195793,0.944645 -0.769225,0.24414 -1.11643,1.524055 -1.132231,4.175455 -0.0068,1.140672 0.18574,1.919449 0.791168,3.200839 0.856794,1.81341 0.947266,2.327402 0.542602,3.083534 -0.544637,1.017654 -1.774323,0.900515 -9.472808,-0.903306 -4.058486,-0.950939 -7.458541,-1.729092 -7.555611,-1.729092 -0.09707,0 -0.176734,-0.148876 -0.176734,-0.331248 0,-0.182369 -0.346485,-0.658622 -0.769977,-1.058333 -0.775563,-0.732009 -1.34669,-0.935799 -1.34669,-0.480589 0,0.146968 -0.346339,0.137128 -0.859896,-0.02379 -0.472942,-0.148169 -1.157552,-0.306422 -1.521354,-0.351914 -0.363802,-0.04547 -0.720989,-0.09464 -0.79375,-0.109038 -0.07277,-0.01442 -0.09286,-1.0086 -0.04496,-2.209168 0.227285,-5.696322 -1.98633,-10.175111 -5.729364,-11.591541 -1.010229,-0.38229 -1.984949,-0.57924 -2.926953,-0.590661 z m 14.336591,19.208128 c 0.118163,-0.01019 0.247668,0.01257 0.407209,0.05323 1.343634,0.342498 10.216774,2.24754 10.487216,2.251541 0.726821,0.01085 -0.6583,0.510778 -1.832446,0.661458 -2.022134,0.259501 -4.772504,1.126559 -5.230172,1.648479 -0.719328,0.82033 -1.292879,2.185469 -1.665013,3.964098 -0.199604,0.95399 -0.459115,1.825681 -0.576709,1.937351 -0.27781,0.263808 -1.440083,-1.561291 -2.562636,-4.024561 -1.393782,-3.058459 -1.410493,-3.357936 -0.288872,-5.111316 0.654442,-1.023075 0.906939,-1.349703 1.261423,-1.38028 z m 23.04562,5.061707 c 0.212212,-0.0078 0.966404,0.121187 1.821596,0.316262 1.39732,0.318727 1.776634,0.50892 1.776634,0.889349 0,0.266091 0.47625,1.086239 1.058334,1.82263 0.582083,0.736388 1.058333,1.584685 1.058333,1.885156 0,0.300479 -0.33529,1.133885 -0.745172,1.851565 l -0.745176,1.30483 -0.587044,-1.116211 c -1.169633,-2.222119 -1.871403,-3.215672 -2.851504,-4.038513 -0.841706,-0.70666 -0.994471,-0.992841 -0.971,-1.820561 0.01532,-0.540081 0.07327,-1.027221 0.128672,-1.082622 0.0069,-0.0069 0.02601,-0.01077 0.05633,-0.01188 z" />
      <path
         style="fill:#000000;stroke-width:0.150596"
         d="m 147.32715,145.60925 c -0.93804,-0.49485 -1.36937,-1.2799 -1.30239,-2.37045 0.0635,-1.03345 0.51039,-1.71928 1.37675,-2.11274 0.83081,-0.3773 1.56533,-0.35767 2.36311,0.0632 1.53062,0.80747 1.79031,2.69326 0.54821,3.98098 -0.80562,0.83521 -1.92318,0.99953 -2.98568,0.43902 z m 2.21267,-1.21607 c 0.38017,-0.38017 0.51202,-0.64301 0.51202,-1.02066 0,-1.35816 -1.6543,-2.0428 -2.6149,-1.08221 -0.49021,0.49022 -0.58304,1.06939 -0.2741,1.71014 0.49278,1.02203 1.56974,1.19997 2.37698,0.39273 z m 12.8975,1.43825 c -0.55365,-0.15952 -1.40742,-0.92647 -1.63339,-1.4673 -0.49445,-1.18338 0.006,-2.57891 1.139,-3.17823 0.7966,-0.42126 1.56316,-0.44179 2.30842,-0.0618 l 0.55893,0.28496 v -2.6945 -2.6945 h 0.45179 0.45179 v 4.89438 4.89438 h -0.37649 c -0.23426,0 -0.37649,-0.0853 -0.37649,-0.22589 0,-0.28175 0.029,-0.28497 -0.67768,0.0753 -0.58979,0.30069 -1.20358,0.3583 -1.84588,0.17324 z m 1.85287,-1.38457 c 0.47417,-0.44546 0.58638,-1.04924 0.31548,-1.69757 -0.26663,-0.63816 -0.70188,-0.89707 -1.50806,-0.89707 -1.48712,0 -1.98744,2.09677 -0.68029,2.85103 0.48969,0.28257 1.43725,0.15285 1.87287,-0.25639 z m 6.70266,1.35436 c -0.72301,-0.30455 -0.80304,-0.45546 -0.44414,-0.83749 0.25019,-0.26632 0.39052,-0.31406 0.5975,-0.20329 0.40844,0.21859 0.98222,0.17393 1.20437,-0.0937 0.28036,-0.33782 0.0262,-0.67227 -0.69693,-0.91705 -1.65754,-0.56108 -1.67969,-2.52841 -0.0319,-2.83753 0.53805,-0.10094 1.62197,0.23538 1.62197,0.50326 0,0.29382 -0.52211,0.55283 -1.11474,0.55302 -0.51511,1.5e-4 -0.61712,0.0496 -0.61712,0.29915 0,0.20606 0.21056,0.39931 0.67768,0.62195 0.95786,0.45653 1.27761,0.861 1.25844,1.59188 -0.0216,0.82337 -0.54285,1.34053 -1.42896,1.41773 -0.36177,0.0315 -0.82353,-0.0125 -1.02613,-0.0979 z m 5.4688,-0.006 c -0.62707,-0.18175 -1.51939,-1.19084 -1.64496,-1.86019 -0.24503,-1.30609 0.55126,-2.5621 1.87593,-2.95898 0.66106,-0.19806 0.8903,-0.15722 2.16077,0.38492 0.18832,0.0804 0.26354,0.0434 0.26354,-0.12955 0,-0.15774 0.1311,-0.242 0.37649,-0.242 h 0.3765 v 2.40954 2.40954 h -0.3765 c -0.23425,0 -0.37649,-0.0853 -0.37649,-0.2259 0,-0.28175 0.029,-0.28496 -0.67768,0.0753 -0.62719,0.31976 -1.20885,0.36015 -1.9776,0.13732 z m 1.98459,-1.34866 c 0.47417,-0.44546 0.58638,-1.04923 0.31549,-1.69757 -0.26664,-0.63816 -0.70189,-0.89707 -1.50806,-0.89707 -1.48713,0 -1.98744,2.09678 -0.6803,2.85103 0.48969,0.28258 1.43726,0.15285 1.87287,-0.25639 z m 4.92504,1.2154 c -0.52626,-0.23888 -0.64004,-0.25168 -0.64004,-0.072 0,0.14242 -0.15735,0.21854 -0.45178,0.21854 h -0.45179 v -4.89438 -4.89438 h 0.53366 0.53365 l -0.0442,2.71091 c -0.0243,1.491 -0.0416,2.71083 -0.0384,2.71073 0.003,-9e-5 0.27165,-0.13571 0.59657,-0.30137 1.05329,-0.53699 2.23781,-0.29014 3.00972,0.62722 1.09007,1.29549 0.65532,3.20465 -0.88953,3.90628 -0.7832,0.35571 -1.35548,0.35265 -2.15784,-0.0115 z m 2.05403,-1.14261 c 1.17719,-0.99054 0.5045,-2.66743 -1.07006,-2.66743 -0.51117,0 -0.70242,0.0865 -1.04926,0.4747 -1.28328,1.43624 0.64605,3.4324 2.11932,2.19273 z m 6.85697,1.15416 c -1.97858,-0.89862 -1.98146,-3.65282 -0.005,-4.5908 1.07079,-0.50813 2.17186,-0.14927 2.91204,0.94909 0.57002,0.84585 0.49929,0.93318 -1.27737,1.57706 -0.88991,0.32252 -1.67664,0.63865 -1.74828,0.70251 -0.17624,0.15713 0.69642,0.59355 1.18685,0.59355 0.21663,0 0.53321,-0.0746 0.70351,-0.16571 0.2508,-0.13423 0.36686,-0.1085 0.61076,0.1354 0.36259,0.3626 0.25123,0.59072 -0.42667,0.87396 -0.67369,0.28149 -1.2169,0.26064 -1.95603,-0.0751 z m 0.84011,-2.8808 c 1.28692,-0.45497 1.36547,-0.54675 0.70435,-0.82298 -0.84667,-0.35376 -1.70724,0.0639 -1.98336,0.96257 -0.0839,0.27309 -0.0608,0.34263 0.0945,0.28405 0.11309,-0.0427 0.64612,-0.23331 1.1845,-0.42364 z m 5.49677,3.0003 c -2.07977,-0.63948 -2.32925,-3.58126 -0.39045,-4.60405 0.81461,-0.42974 1.57202,-0.44567 2.31278,-0.0487 l 0.56251,0.30149 v -2.71103 -2.71103 h 0.45179 0.45179 v 4.89438 4.89438 h -0.45179 c -0.28565,0 -0.45179,-0.0771 -0.45179,-0.20966 0,-0.16562 -0.1174,-0.14981 -0.55893,0.0753 -0.59825,0.30501 -1.19981,0.34214 -1.92591,0.11888 z m 1.48828,-1.03196 c 0.80297,-0.30529 1.145,-1.56095 0.63655,-2.33694 -0.26914,-0.41076 -1.06041,-0.68508 -1.65065,-0.57226 -0.64826,0.12393 -1.15186,0.7478 -1.15186,1.42695 0,0.73527 0.19096,1.10475 0.71911,1.39137 0.48269,0.26194 0.924,0.28966 1.44685,0.0909 z m 9.41694,1.05412 c -1.42903,-0.43307 -2.23033,-2.19006 -1.57594,-3.45551 0.65449,-1.26564 2.06117,-1.79236 3.31066,-1.23966 0.59426,0.26288 0.7144,0.27661 0.78606,0.0899 0.0465,-0.12125 0.24677,-0.22044 0.44497,-0.22044 h 0.36038 v 2.40954 2.40954 h -0.45179 c -0.28564,0 -0.45179,-0.0771 -0.45179,-0.20966 0,-0.16562 -0.11739,-0.14981 -0.55892,0.0753 -0.5811,0.29626 -1.19749,0.34291 -1.86363,0.14104 z m 1.426,-1.05412 c 0.80297,-0.30529 1.145,-1.56095 0.63655,-2.33694 -0.26914,-0.41076 -1.06041,-0.68508 -1.65065,-0.57226 -0.64826,0.12393 -1.15187,0.7478 -1.15187,1.42695 0,0.73527 0.19097,1.10475 0.71912,1.39137 0.48268,0.26194 0.924,0.28966 1.44685,0.0909 z m 17.99997,0.84791 c -0.94268,-0.49732 -1.36946,-1.27893 -1.30143,-2.38352 0.0667,-1.0826 0.57547,-1.79988 1.53731,-2.16721 0.79702,-0.30438 1.54033,-0.22854 2.1726,0.22168 0.46479,0.33096 1.13625,1.51606 0.95358,1.68307 -0.0606,0.0554 -0.82184,0.35835 -1.69153,0.67309 -0.8697,0.31475 -1.61515,0.59929 -1.65656,0.63233 -0.0414,0.033 0.0847,0.18977 0.28023,0.34829 0.39573,0.32082 1.08341,0.375 1.55518,0.12252 0.25079,-0.13423 0.36686,-0.1085 0.61075,0.1354 0.3626,0.3626 0.25123,0.59072 -0.42666,0.87396 -0.71765,0.29985 -1.27265,0.26175 -2.03347,-0.13961 z m 2.01558,-3.34875 c 0.0126,-0.0777 -0.14936,-0.22392 -0.35999,-0.32487 -0.75575,-0.36223 -1.94281,0.27395 -1.94281,1.0412 0,0.2373 0.11358,0.22178 1.13991,-0.15572 0.62695,-0.2306 1.15025,-0.48287 1.16289,-0.56061 z m 8.16364,3.5328 c -0.98515,-0.30291 -1.7318,-1.33686 -1.72881,-2.39405 0.005,-1.87898 2.1663,-3.19911 3.62664,-2.21547 0.52592,0.35424 1.27314,1.50634 1.12863,1.74016 -0.0446,0.0721 -0.79532,0.38566 -1.6683,0.69668 -0.87298,0.31103 -1.62153,0.62101 -1.66346,0.68885 -0.042,0.0678 0.0755,0.22963 0.261,0.35954 0.37526,0.26285 1.40556,0.31974 1.55026,0.0856 0.15567,-0.25188 0.4373,-0.16104 0.72474,0.23378 l 0.27295,0.37491 -0.64943,0.29474 c -0.70301,0.31904 -1.1504,0.35167 -1.85422,0.13526 z m 0.50306,-2.96736 c 0.6053,-0.23249 1.11055,-0.48662 1.12279,-0.56474 0.0366,-0.2338 -0.69235,-0.50052 -1.13273,-0.41444 -0.50163,0.0981 -1.1708,0.73888 -1.1708,1.12123 0,0.15437 0.018,0.28066 0.0401,0.28066 0.0221,0 0.53535,-0.19022 1.14064,-0.42271 z m 4.70063,2.97528 c -0.72301,-0.30456 -0.80304,-0.45546 -0.44414,-0.83749 0.25019,-0.26632 0.39053,-0.31406 0.5975,-0.20329 0.40844,0.21858 0.98222,0.17393 1.20437,-0.0937 0.28037,-0.33782 0.0262,-0.67228 -0.69693,-0.91705 -1.65754,-0.56108 -1.67969,-2.52841 -0.0319,-2.83753 0.53804,-0.10094 1.62196,0.23538 1.62196,0.50326 0,0.29381 -0.52211,0.55283 -1.11474,0.55302 -0.51511,1.5e-4 -0.61712,0.0496 -0.61712,0.29914 0,0.20607 0.21056,0.39932 0.67768,0.62196 0.95786,0.45653 1.27761,0.861 1.25844,1.59188 -0.0216,0.82336 -0.54285,1.34053 -1.42895,1.41772 -0.36177,0.0315 -0.82354,-0.0125 -1.02614,-0.0979 z m -101.9951,-1.98783 -0.042,-1.9954 -0.41414,-0.0476 c -0.34442,-0.0396 -0.41414,-0.12035 -0.41414,-0.47944 0,-0.35909 0.0697,-0.4398 0.41414,-0.47944 0.41326,-0.0475 0.4143,-0.0507 0.48944,-1.47831 0.10387,-1.97369 0.52844,-2.65985 1.94257,-3.13949 0.88127,-0.29891 1.09501,-0.23872 1.04124,0.29318 -0.0393,0.38846 -0.14222,0.49932 -0.61335,0.66043 -1.12067,0.38324 -1.46689,1.00463 -1.46689,2.63283 v 1.05901 h 0.75299 c 0.73313,0 0.75298,0.0117 0.75298,0.44354 0,0.42229 -0.0343,0.44573 -0.71534,0.48943 l -0.71533,0.0459 -0.042,1.9954 -0.042,1.9954 h -0.44305 -0.44304 z m 10.42442,-0.41414 v -2.40954 h 0.45179 c 0.43037,0 0.45201,0.0303 0.45655,0.64003 l 0.005,0.64004 0.31286,-0.41947 c 0.26243,-0.35186 1.27574,-1.0112 1.55405,-1.0112 0.12042,0 0.0942,0.6516 -0.034,0.84274 -0.0609,0.0908 -0.30284,0.21213 -0.53776,0.26967 -0.23491,0.0575 -0.59069,0.26819 -0.79063,0.46813 -0.33605,0.33605 -0.36352,0.47786 -0.36352,1.87633 v 1.51281 h -0.52709 -0.52708 z m 14.90903,0 v -2.40954 h 0.45179 0.45179 v 2.40954 2.40954 h -0.45179 -0.45179 z m 20.93289,-2.48484 v -4.89438 h 0.45179 0.45179 v 4.89438 4.89438 h -0.45179 -0.45179 z m 26.50496,2.86133 v -2.03306 h -0.52709 c -0.48526,0 -0.52709,-0.0358 -0.52709,-0.45178 0,-0.41593 0.0418,-0.45179 0.52709,-0.45179 h 0.52709 v -1.58126 -1.58126 h 0.52708 0.52709 v 1.58126 1.58126 h 0.60239 c 0.56891,0 0.60238,0.0251 0.60238,0.45179 0,0.42669 -0.0335,0.45178 -0.60238,0.45178 h -0.60239 v 2.03306 2.03305 h -0.52709 -0.52708 z m 3.61431,-2.86133 v -4.89438 h 0.52709 0.52708 v 3.03223 3.03224 l 0.32648,-0.41505 c 0.40822,-0.51897 1.13541,-0.83034 1.93922,-0.83034 0.48314,0 0.71531,0.0965 1.05901,0.4402 l 0.4402,0.44021 v 2.04464 2.04463 h -0.52708 -0.52709 v -1.7211 c 0,-1.98508 -0.10302,-2.19441 -1.08,-2.19441 -0.48916,0 -0.70587,0.0992 -1.11871,0.51203 -0.51119,0.51119 -0.51203,0.51439 -0.51203,1.95775 v 1.44573 h -0.52708 -0.52709 z m 6.62624,0 v -4.89438 h 0.45179 0.45179 v 4.89438 4.89438 h -0.45179 -0.45179 z m 9.0025,2.89898 -0.042,-1.9954 -0.48944,-0.0472 c -0.43036,-0.0415 -0.48944,-0.10057 -0.48944,-0.48944 0,-0.40502 0.0443,-0.44225 0.52709,-0.44225 h 0.52709 v -1.58126 -1.58125 h 0.52709 0.52708 v 1.58125 1.58126 h 0.60239 c 0.56892,0 0.60239,0.0251 0.60239,0.45179 0,0.4267 -0.0335,0.45179 -0.60239,0.45179 h -0.60239 v 2.03305 2.03305 h -0.52271 -0.52272 z m -66.65078,-4.35947 c -0.51116,-0.51117 0.09,-1.36277 0.72287,-1.02406 0.53155,0.28448 0.30148,1.20477 -0.3012,1.20477 -0.13252,0 -0.32227,-0.0813 -0.42167,-0.18071 z m -14.63796,-12.16818 v -4.0661 h 0.36901 c 0.20295,0 0.42588,0.10162 0.49538,0.22583 0.10959,0.19581 0.20563,0.1845 0.72282,-0.0851 1.12557,-0.58674 2.74498,-0.0241 3.30056,1.14667 0.35825,0.75496 0.25993,1.95511 -0.2148,2.62179 -0.6527,0.91665 -2.02511,1.28994 -3.09654,0.84227 l -0.52226,-0.21821 v 1.79947 1.79948 h -0.52708 -0.52709 z m 3.72702,-0.67677 c 0.40453,-0.47028 0.46027,-1.49274 0.10874,-1.9946 -0.50904,-0.72676 -2.05544,-0.7064 -2.54021,0.0334 -0.27328,0.41709 -0.31789,1.30999 -0.087,1.74143 0.43639,0.8154 1.89651,0.9428 2.51846,0.21974 z m 66.45087,2.91961 c 0,-1.67876 -0.0209,-1.81439 -0.26354,-1.71115 -1.35381,0.57595 -2.25765,0.45048 -3.14469,-0.43658 -1.08404,-1.08403 -1.08457,-2.41878 -0.001,-3.50197 0.82717,-0.82717 1.67859,-0.9901 2.73409,-0.5232 0.8512,0.37652 0.82611,0.3738 0.82611,0.0898 0,-0.14055 0.14223,-0.22589 0.37649,-0.22589 h 0.37649 v 4.0661 4.06611 h -0.45179 -0.45179 v -1.82327 z m -0.5201,-2.85179 c 0.47417,-0.44546 0.58639,-1.04924 0.31549,-1.69757 -0.26664,-0.63816 -0.70189,-0.89707 -1.50807,-0.89707 -1.48711,0 -1.98743,2.09677 -0.68029,2.85104 0.48969,0.28256 1.43725,0.15284 1.87287,-0.2564 z m 12.7184,0.60895 v -4.0661 h 0.45179 c 0.31456,0 0.45179,0.0735 0.45179,0.24201 0,0.17292 0.0752,0.2099 0.26354,0.12954 1.26854,-0.54131 1.50032,-0.58279 2.15698,-0.38605 1.35286,0.40533 2.17834,1.80781 1.80346,3.06408 -0.24582,0.82378 -1.17069,1.71984 -1.92028,1.86047 -0.50966,0.0956 -1.19836,-0.0182 -1.88956,-0.31226 -0.24266,-0.10324 -0.26355,0.0324 -0.26355,1.71115 v 1.82327 h -0.52708 -0.52709 z m 3.70467,-0.66262 c 0.38529,-0.38529 0.51203,-0.6412 0.51203,-1.03387 0,-1.06981 -1.14654,-1.83386 -2.13308,-1.42148 -0.6654,0.27814 -0.88939,0.57333 -0.98695,1.3007 -0.0726,0.54125 -0.0257,0.65936 0.45027,1.13538 0.73261,0.73261 1.43808,0.73891 2.15773,0.0193 z m -93.23736,1.40308 c -2.13225,-0.2729 -3.84133,-2.2112 -3.87339,-4.39292 -0.0212,-1.44165 0.37763,-2.43573 1.37819,-3.43524 0.99755,-0.99649 1.86151,-1.34569 3.32943,-1.34569 0.81688,0 1.17389,0.0853 1.92151,0.45884 1.62384,0.81144 2.45108,2.07895 2.56136,3.92458 0.0602,1.00683 0.0192,1.2554 -0.33833,2.05204 -0.88406,1.96995 -2.79042,3.01847 -4.97877,2.73839 z m 2.26827,-1.2475 c 1.86803,-0.86986 2.62436,-3.14303 1.67143,-5.02354 -1.33459,-2.63368 -4.85449,-2.67555 -6.378,-0.0759 -0.54728,0.93387 -0.58336,2.49747 -0.0796,3.45008 0.92704,1.75306 3.01689,2.47323 4.78618,1.64933 z m 13.09573,1.24454 c -0.98515,-0.30291 -1.7318,-1.33687 -1.72882,-2.39406 0.005,-1.87898 2.16631,-3.1991 3.62665,-2.21546 0.52592,0.35423 1.27314,1.50633 1.12863,1.74016 -0.0446,0.0721 -0.79533,0.38566 -1.6683,0.69668 -0.87298,0.31102 -1.62153,0.62101 -1.66346,0.68884 -0.0419,0.0678 0.0755,0.22964 0.26099,0.35955 0.37527,0.26285 1.40557,0.31974 1.55027,0.0856 0.15567,-0.25188 0.4373,-0.16104 0.72474,0.23378 l 0.27295,0.37491 -0.64944,0.29473 c -0.703,0.31904 -1.15039,0.35168 -1.85421,0.13527 z m 0.50306,-2.96736 c 0.6053,-0.23249 1.11055,-0.48662 1.12279,-0.56474 0.0366,-0.2338 -0.69236,-0.50052 -1.13273,-0.41444 -0.50163,0.098 -1.1708,0.73888 -1.1708,1.12123 0,0.15436 0.018,0.28066 0.0401,0.28066 0.022,0 0.53534,-0.19022 1.14063,-0.42271 z m 15.09177,2.97527 c -0.72301,-0.30455 -0.80303,-0.45546 -0.44414,-0.83749 0.25019,-0.26631 0.39053,-0.31406 0.5975,-0.20329 0.40844,0.21859 0.98223,0.17393 1.20437,-0.0937 0.28037,-0.33783 0.0262,-0.67229 -0.69693,-0.91706 -1.65754,-0.56108 -1.67968,-2.52841 -0.0319,-2.83753 0.53804,-0.10093 1.62196,0.23539 1.62196,0.50327 0,0.29381 -0.5221,0.55283 -1.11473,0.55301 -0.51512,1.5e-4 -0.61712,0.0496 -0.61712,0.29915 0,0.20607 0.21056,0.39931 0.67768,0.62195 0.95786,0.45654 1.27761,0.861 1.25844,1.59189 -0.0216,0.82336 -0.54285,1.34052 -1.42896,1.41772 -0.36177,0.0315 -0.82353,-0.0125 -1.02614,-0.0979 z m 5.35377,0.01 c -0.96797,-0.30681 -1.74981,-1.43564 -1.74509,-2.51959 0.006,-1.24238 1.26664,-2.45653 2.5437,-2.44872 0.76282,0.005 1.71401,0.47747 2.12679,1.05717 0.78659,1.10465 0.45712,2.90389 -0.65794,3.59304 -0.5966,0.36872 -1.64411,0.51567 -2.26746,0.3181 z m 1.54371,-1.12012 c 1.11127,-0.57465 0.99821,-2.22939 -0.18613,-2.72424 -0.64025,-0.26752 -1.22804,-0.1244 -1.67613,0.40813 -0.63713,0.75719 -0.4729,1.8525 0.34427,2.29597 0.52398,0.28435 0.99499,0.2906 1.51799,0.0201 z m 15.5193,0.91864 c -1.66619,-0.87899 -1.79379,-3.21329 -0.23406,-4.28203 0.67155,-0.46016 1.69053,-0.58158 2.39842,-0.28581 0.62809,0.26243 0.65966,0.34185 0.32553,0.8189 -0.18605,0.26562 -0.29344,0.30385 -0.51719,0.1841 -1.00866,-0.53982 -2.25993,0.21032 -2.25993,1.35484 0,1.14077 1.25098,1.89482 2.25345,1.35831 0.21894,-0.11718 0.32571,-0.0716 0.51719,0.22059 0.32452,0.49529 0.3181,0.51272 -0.28096,0.76303 -0.74638,0.31186 -1.43997,0.27031 -2.20245,-0.13193 z m 5.34829,0.0646 c -1.97857,-0.89863 -1.98145,-3.65283 -0.005,-4.59081 1.07079,-0.50813 2.17185,-0.14927 2.91204,0.94909 0.57002,0.84585 0.49928,0.93318 -1.27736,1.57707 -0.88992,0.32251 -1.67665,0.63864 -1.74829,0.70251 -0.17624,0.15712 0.69642,0.59354 1.18684,0.59354 0.21664,0 0.53322,-0.0746 0.70352,-0.16571 0.2508,-0.13422 0.36686,-0.1085 0.61076,0.1354 0.36259,0.3626 0.25122,0.59072 -0.42666,0.87396 -0.6737,0.28149 -1.21692,0.26064 -1.95605,-0.075 z m 0.84012,-2.88081 c 1.28692,-0.45496 1.36547,-0.54675 0.70435,-0.82298 -0.84666,-0.35376 -1.70725,0.0639 -1.98336,0.96258 -0.0839,0.27309 -0.0608,0.34263 0.0945,0.28404 0.1131,-0.0427 0.64612,-0.2333 1.1845,-0.42364 z m 8.87122,2.81625 c -0.94269,-0.49731 -1.36946,-1.27893 -1.30144,-2.38352 0.0667,-1.0826 0.57548,-1.79988 1.53732,-2.1672 0.79701,-0.30439 1.54033,-0.22855 2.17259,0.22167 0.4648,0.33096 1.13625,1.51607 0.95359,1.68307 -0.0607,0.0554 -0.82184,0.35835 -1.69154,0.6731 -0.86969,0.31474 -1.61514,0.59929 -1.65656,0.63233 -0.0414,0.033 0.0847,0.18976 0.28023,0.34828 0.39573,0.32083 1.08341,0.37501 1.55518,0.12252 0.2508,-0.13422 0.36686,-0.10849 0.61076,0.13541 0.36259,0.36259 0.25123,0.59071 -0.42666,0.87395 -0.71765,0.29986 -1.27266,0.26175 -2.03347,-0.13961 z m 2.01557,-3.34874 c 0.0126,-0.0777 -0.14935,-0.22392 -0.35998,-0.32487 -0.75576,-0.36223 -1.94282,0.27395 -1.94282,1.0412 0,0.23729 0.11359,0.22177 1.13991,-0.15572 0.62696,-0.2306 1.15025,-0.48288 1.16289,-0.56061 z m 37.44067,3.34874 c -0.94269,-0.49731 -1.36947,-1.27893 -1.30144,-2.38352 0.0667,-1.0826 0.57548,-1.79988 1.53732,-2.1672 0.79701,-0.30439 1.54032,-0.22855 2.17259,0.22167 0.4648,0.33096 1.13625,1.51607 0.95359,1.68307 -0.0606,0.0554 -0.82184,0.35835 -1.69154,0.6731 -0.86969,0.31474 -1.61514,0.59929 -1.65655,0.63233 -0.0414,0.033 0.0847,0.18976 0.28022,0.34828 0.39573,0.32083 1.08341,0.37501 1.55518,0.12252 0.2508,-0.13422 0.36686,-0.10849 0.61076,0.13541 0.36259,0.36259 0.25122,0.59071 -0.42666,0.87395 -0.71765,0.29986 -1.27266,0.26175 -2.03347,-0.13961 z m 2.01557,-3.34874 c 0.0126,-0.0777 -0.14935,-0.22392 -0.35998,-0.32487 -0.75576,-0.36223 -1.94282,0.27395 -1.94282,1.0412 0,0.23729 0.11359,0.22177 1.13992,-0.15572 0.62694,-0.2306 1.15025,-0.48288 1.16288,-0.56061 z m 13.69806,3.45075 c -0.56755,-0.27979 -0.57586,-0.31386 -0.18967,-0.77714 0.23555,-0.28255 0.34545,-0.31777 0.58748,-0.18824 0.45787,0.24505 1.04323,0.1905 1.2053,-0.11232 0.20471,-0.38252 0.0431,-0.56696 -0.8155,-0.93046 -0.41248,-0.17463 -0.83467,-0.42904 -0.9382,-0.56535 -0.25549,-0.33638 -0.23774,-1.25739 0.0316,-1.64199 0.46083,-0.65792 1.70056,-0.82159 2.39223,-0.31582 0.23467,0.17159 0.23582,0.21366 0.0144,0.52978 -0.2,0.28554 -0.32762,0.32706 -0.75748,0.24641 -0.56774,-0.10651 -0.99911,0.12603 -0.86793,0.46787 0.0438,0.11413 0.38193,0.32295 0.75141,0.46406 0.8255,0.31526 1.25941,0.83905 1.25941,1.52028 0,0.67446 -0.20943,1.04407 -0.74997,1.3236 -0.56536,0.29236 -1.30422,0.28441 -1.92311,-0.0207 z m -103.49733,-2.31201 v -2.40954 h 0.45179 c 0.39569,0 0.45179,0.053 0.45179,0.42669 0,0.60311 0.14472,0.67558 0.48508,0.24288 0.42538,-0.5408 1.05667,-0.82017 1.85327,-0.82017 0.56929,0 0.77727,0.0805 1.13695,0.44021 l 0.44021,0.4402 v 2.04464 2.04463 h -0.52709 -0.52709 v -1.7211 c 0,-1.98508 -0.10302,-2.1944 -1.07999,-2.1944 -0.48916,0 -0.70587,0.0992 -1.11871,0.51203 -0.51119,0.51119 -0.51203,0.51438 -0.51203,1.95775 v 1.44572 h -0.52709 -0.52709 z m 21.94942,2.24688 c -0.56359,-0.32825 -0.71534,-0.94708 -0.71534,-2.91709 v -1.88993 h 0.5271 0.52708 v 1.70852 c 0,1.46393 0.0394,1.7442 0.2754,1.95776 0.53141,0.48091 1.91911,0.17943 2.28027,-0.49541 0.0853,-0.15935 0.15507,-0.93799 0.15507,-1.7303 v -1.44057 h 0.52708 0.52709 v 2.48484 2.48484 h -0.54291 c -0.54205,0 -0.54281,-0.001 -0.48578,-0.59898 l 0.0571,-0.59897 -0.45544,0.43031 c -0.25049,0.23667 -0.60347,0.50621 -0.78439,0.59898 -0.40741,0.2089 -1.53783,0.21249 -1.89235,0.006 z m 6.2121,-2.24688 v -2.40954 h 0.45179 c 0.39957,0 0.45179,0.0512 0.45179,0.4429 0,0.60669 0.19079,0.6733 0.61814,0.21584 0.324,-0.34685 1.04221,-0.80934 1.25683,-0.80934 0.0455,0 0.0828,0.23719 0.0828,0.52709 0,0.46724 -0.0445,0.52709 -0.39155,0.52709 -0.2445,0 -0.58385,0.1923 -0.90358,0.51203 -0.51119,0.51119 -0.51203,0.51438 -0.51203,1.95775 v 1.44572 h -0.52708 -0.52709 z m 32.65773,2.18118 c -0.57516,-0.31246 -0.73131,-0.94376 -0.73131,-2.95663 v -1.78469 h 0.52709 0.52709 v 1.62306 c 0,1.98641 0.14744,2.29245 1.10449,2.29245 1.25608,0 1.75683,-0.77128 1.75683,-2.7059 v -1.20961 h 0.45179 0.45179 v 2.48484 2.48484 h -0.45179 c -0.43066,0 -0.45179,-0.0297 -0.45179,-0.63595 v -0.63594 l -0.44399,0.48612 c -0.24421,0.26736 -0.62134,0.55354 -0.83809,0.63594 -0.557,0.21178 -1.43441,0.17555 -1.90211,-0.0785 z m 5.89493,-2.18118 v -2.40954 h 0.52708 0.52709 v 2.40954 2.40954 h -0.52709 -0.52708 z m 9.78876,0 v -2.40954 h 0.44497 c 0.39311,0 0.45703,0.0643 0.5485,0.55191 l 0.10354,0.55191 0.30588,-0.4199 c 0.3661,-0.50259 1.09796,-0.83452 1.83999,-0.83452 0.69113,0 1.0714,0.20674 1.41276,0.76807 l 0.27223,0.44764 0.23552,-0.35945 c 0.57612,-0.87926 2.16818,-1.13034 2.95725,-0.46638 l 0.46335,0.38988 v 2.09496 2.09496 h -0.45179 -0.45179 l -0.002,-1.54361 c -0.003,-1.98432 -0.1399,-2.28092 -1.08209,-2.34204 -0.59859,-0.0388 -0.77356,0.0197 -1.20118,0.40155 -0.49571,0.44266 -0.50105,0.46168 -0.55231,1.96554 l -0.0518,1.51856 h -0.43768 -0.43768 l -0.002,-1.54361 c -0.003,-1.99378 -0.13765,-2.28092 -1.09973,-2.34276 -0.64724,-0.0416 -0.76977,0.005 -1.23883,0.47438 l -0.52055,0.52054 v 1.44573 1.44572 h -0.52709 -0.52708 z m 16.415,0 v -2.40954 h 0.45179 c 0.42108,0 0.45179,0.0381 0.45179,0.56065 v 0.56065 l 0.44399,-0.48612 c 0.72451,-0.79322 1.82427,-1.02232 2.70968,-0.56446 0.60557,0.31316 0.76183,0.92104 0.76183,2.96368 v 1.78468 h -0.52709 -0.52708 v -1.62305 c 0,-1.98641 -0.14745,-2.29245 -1.1045,-2.29245 -1.25608,0 -1.75683,0.77128 -1.75683,2.7059 v 1.2096 h -0.45179 -0.45179 z m 6.74355,0.41414 -0.042,-1.9954 -0.48944,-0.0472 c -0.43036,-0.0415 -0.48944,-0.10057 -0.48944,-0.48943 0,-0.40503 0.0443,-0.44225 0.52709,-0.44225 h 0.52709 v -1.58126 -1.58126 h 0.52708 0.52709 v 1.58126 1.58126 h 0.60239 c 0.56891,0 0.60238,0.0251 0.60238,0.45179 0,0.42669 -0.0335,0.45179 -0.60238,0.45179 h -0.60239 v 2.03305 2.03305 h -0.52272 -0.52271 z m -32.75907,-4.27878 c -0.10353,-0.0418 -0.18824,-0.27124 -0.18824,-0.5099 0,-0.78744 0.95824,-0.9545 1.14758,-0.20008 0.15005,0.59783 -0.33947,0.9601 -0.95934,0.70998 z m -3.35077,-10.36781 c -1.59097,-0.3878 -3.50041,-1.45976 -4.48108,-2.51569 l -0.33968,-0.36575 0.33968,-0.30818 c 0.18683,-0.1695 1.00443,-0.7951 1.81689,-1.3902 l 1.47721,-1.08203 0.52023,0.45677 c 0.78447,0.68878 1.38642,0.94619 2.40349,1.02783 1.86915,0.15004 3.16639,-0.94818 3.14215,-2.66009 -0.0213,-1.50294 -0.769,-2.37078 -2.39404,-2.7786 -0.49697,-0.12472 -1.47313,-0.36831 -2.16924,-0.5413 -2.22246,-0.55231 -3.55407,-1.590693 -4.44154,-3.463493 -0.42713,-0.90133 -0.4669,-1.11535 -0.46313,-2.491978 0.003,-1.235935 0.065,-1.639588 0.3436,-2.251209 0.80443,-1.765902 2.47122,-3.245704 4.23515,-3.760034 1.0028,-0.292395 2.83129,-0.305822 3.87308,-0.0284 1.39524,0.371495 3.66705,1.874081 3.66705,2.425403 0,0.110188 -0.75781,0.757025 -1.68403,1.437415 -1.38328,1.016145 -1.7262,1.206002 -1.92011,1.063074 -0.73115,-0.538908 -1.87297,-0.951463 -2.42751,-0.877083 -2.09153,0.280534 -2.41775,2.841766 -0.46609,3.659382 0.27774,0.11636 1.12395,0.28682 1.88047,0.37881 3.84806,0.46788 6.1667,2.577 6.62171,6.023363 0.30689,2.3245 -0.38578,4.3853 -2.02856,6.03527 -1.06903,1.0737 -2.05715,1.66106 -3.36956,2.0029 -1.06881,0.27838 -3.00247,0.28019 -4.13614,0.004 z m 16.6409,0.0731 c -0.91333,-0.18332 -2.19197,-0.69683 -2.98089,-1.19714 -0.74039,-0.46955 -2.06409,-1.62523 -2.06409,-1.8021 0,-0.0566 0.81402,-0.69681 1.80894,-1.42272 l 1.80893,-1.31985 0.67715,0.59606 c 1.0805,0.95109 2.72139,1.20778 3.94236,0.61671 1.87267,-0.90653 1.90698,-3.74026 0.0579,-4.77951 -0.3407,-0.19148 -1.2491,-0.47481 -2.01867,-0.62962 -3.14304,-0.63227 -4.72322,-1.697853 -5.70389,-3.846363 -0.28291,-0.61983 -0.34049,-1.00983 -0.34336,-2.325958 -0.003,-1.47304 0.0298,-1.651502 0.48266,-2.607581 0.61279,-1.293787 1.7907,-2.467864 3.14461,-3.134394 1.84667,-0.909111 4.65363,-0.756427 6.48865,0.35295 0.86914,0.525447 2.00363,1.508768 2.00363,1.73664 0,0.121834 -2.61475,2.121675 -3.28496,2.512431 -0.11345,0.06614 -0.30718,0.01622 -0.4545,-0.117081 -0.39477,-0.357265 -1.55822,-0.844315 -2.02569,-0.848003 -1.09606,-0.0087 -2.06413,0.89331 -2.06529,1.924271 -0.001,1.244135 0.89666,1.871265 3.06039,2.137115 3.34468,0.41095 5.43247,1.86797 6.3674,4.443683 1.24853,3.43967 -0.19144,7.237 -3.39068,8.94149 -0.52418,0.27927 -1.30082,0.60036 -1.72586,0.71354 -0.83368,0.22198 -2.81072,0.25094 -3.78473,0.0554 z m -44.37371,-2.29385 c -8.36772,-6.95544 -12.48713,-10.353473 -12.55144,-10.353473 -0.0397,0 -0.0899,2.795443 -0.11154,6.212093 l -0.0393,6.2121 -2.2213,0.0417 -2.22129,0.0417 v -11.07285 c 0,-6.09007 0.054,-11.072852 0.11992,-11.072852 0.066,0 0.82835,0.595349 1.69421,1.322998 11.38968,9.571644 13.51059,11.327094 13.68523,11.327094 0.11386,0 0.16265,-1.874853 0.16265,-6.249749 v -6.249748 h 2.18365 2.18365 v 11.068827 c 0,6.08786 -0.0273,11.06884 -0.0607,11.06884 -0.0334,0 -1.30407,-1.03349 -2.82368,-2.29662 z m -58.55888,-8.84349 V 89.335175 h 5.79796 5.79796 v 2.033048 2.033053 h -3.53902 -3.53901 v 2.105926 2.105935 l 4.10375,0.0401 4.10375,0.0401 v 1.95775 1.957753 l -4.10164,0.0401 -4.10164,0.0401 -0.0398,4.77902 -0.0398,4.77902 -2.22129,0.0417 -2.2213,0.0417 z m 15.81261,-0.004 V 89.3352 h 2.18365 2.18365 v 10.99353 10.99353 h -2.18365 -2.18365 z m 12.65009,2.03708 v -8.964509 h -2.70258 -2.70258 l -0.0458,-2.033304 -0.0458,-2.033303 7.86866,3.01e-4 7.86866,3.02e-4 v 2.033048 2.033053 h -2.84522 c -2.48528,0 -2.85708,0.03091 -2.93896,0.244265 -0.0516,0.13435 -0.0905,4.149624 -0.0864,8.922837 l 0.007,8.67847 -2.18861,0.0417 -2.18862,0.0417 z m 37.3479,-2.03708 V 89.3352 h 5.80233 5.80232 l -0.042,1.995402 -0.042,1.995402 -3.53901,0.0753 -3.53901,0.0753 v 2.033054 2.033049 l 4.10374,0.0401 4.10376,0.0401 v 2.03063 2.030633 h -4.1448 -4.1448 l 0.041,2.74838 0.041,2.74838 4.48024,0.0399 4.48024,0.0399 v 2.03081 2.03081 h -6.70155 -6.70153 z M 138.00414,83.378021 c 0,-0.04616 1.55338,-3.078779 3.45196,-6.739189 1.89858,-3.660404 4.45683,-8.595864 5.68501,-10.967684 1.22818,-2.371819 2.28713,-4.3371 2.35322,-4.367295 0.0661,-0.03017 0.69845,1.063285 1.40523,2.42995 0.70677,1.36666 3.27871,6.322473 5.71543,11.012911 2.43671,4.690443 4.43039,8.570177 4.43039,8.621637 0,0.05145 -1.10636,0.09357 -2.45858,0.09357 h -2.45858 l -0.6663,-1.423943 -0.66629,-1.423947 -5.39031,-0.0067 -5.39031,-0.0067 -0.69167,1.430664 -0.69166,1.430664 h -2.31377 c -1.27257,0 -2.31377,-0.03774 -2.31377,-0.0839 z m 14.60784,-6.985315 c 0,-0.255484 -3.14051,-6.635063 -3.26604,-6.634585 -0.13529,5.12e-4 -3.2096,6.324704 -3.2096,6.602477 0,0.126063 0.89051,0.173891 3.23782,0.173891 1.92396,0 3.23782,-0.05753 3.23782,-0.141783 z m 10.54174,-3.913139 V 61.474858 h 5.10703 c 5.62501,0 6.58078,0.09925 8.42756,0.875193 2.53478,1.064998 4.52473,2.897033 5.67425,5.223956 0.99099,2.006022 1.1731,2.905832 1.08184,5.345299 -0.0571,1.525593 -0.15372,2.250476 -0.38671,2.900403 -1.25427,3.498979 -3.75835,5.940899 -7.32917,7.147242 l -1.20477,0.407017 -5.68502,0.05515 -5.68501,0.05515 z m 10.87559,6.617282 c 1.65132,-0.510045 3.0129,-1.559186 3.89592,-3.00194 0.96154,-1.571036 1.21028,-4.09477 0.58793,-5.964941 -0.52563,-1.579539 -1.78793,-3.059313 -3.24113,-3.799546 -1.2959,-0.66011 -2.10156,-0.789463 -4.91702,-0.789463 h -2.6834 v 6.927429 6.92743 h 2.69487 c 2.26275,0 2.85009,-0.04793 3.66283,-0.298969 z m 12.39988,0.939004 c 0.97042,-1.884338 2.2257,-4.307054 2.78948,-5.383817 0.56378,-1.076763 1.6897,-3.246568 2.50204,-4.821794 4.63272,-8.98338 4.46891,-8.689426 4.68095,-8.399951 0.10897,0.14875 0.54105,0.948145 0.96018,1.77642 0.41913,0.828281 1.20372,2.353071 1.74352,3.38842 1.23657,2.37174 2.68263,5.157231 4.18265,8.056905 2.39043,4.620878 3.29511,6.357034 3.94329,7.567464 l 0.66531,1.242419 h -2.49372 -2.49372 l -0.71067,-1.430665 -0.71068,-1.430664 h -5.36466 -5.36466 l -0.69631,1.430664 -0.69631,1.430665 h -2.35055 -2.35056 z m 12.90602,-3.589934 c 0.09,-0.09002 -2.9426,-6.339612 -3.20234,-6.599353 -0.0887,-0.08866 -0.73571,1.087134 -1.72673,3.137741 -0.87172,1.803741 -1.58494,3.340427 -1.58494,3.414853 0,0.147259 6.36781,0.192965 6.51401,0.04679 z m 10.50337,-3.977531 v -10.99353 l 4.32965,0.0028 c 4.83557,0.0028 5.7011,0.111036 7.28465,0.90997 1.98257,1.000242 3.48307,2.527981 4.35679,4.435865 1.26853,2.770009 0.88762,6.615955 -0.92345,9.323729 -0.88385,1.321467 -1.79246,2.145507 -3.15052,2.857305 -1.61104,0.844383 -2.39144,1.016515 -5.00733,1.104448 l -2.3719,0.07972 v 1.636703 1.636703 h -2.25894 -2.25895 z m 9.36962,3.044321 c 1.0926,-0.53806 1.71393,-1.193696 2.26712,-2.392316 0.27968,-0.605969 0.33567,-0.991095 0.33567,-2.308566 0,-1.441803 -0.0388,-1.660284 -0.4393,-2.477267 -0.57185,-1.166335 -1.53302,-2.090512 -2.58264,-2.483225 -0.66795,-0.249912 -1.18053,-0.310376 -2.63107,-0.310376 h -1.80151 v 5.17047 c 0,2.843763 0.0508,5.221872 0.11295,5.284687 0.0621,0.06282 0.92774,0.09106 1.92359,0.06275 1.69022,-0.04804 1.87745,-0.08436 2.81519,-0.546154 z m 14.39156,-0.672399 c 0.0232,-4.74192 0.005,-8.774149 -0.0405,-8.960511 -0.082,-0.335761 -0.10741,-0.33884 -2.79064,-0.33884 h -2.70786 v -2.033053 -2.033048 h 7.90631 7.90631 v 2.029798 2.029797 l -2.89898,0.04093 -2.89898,0.04092 -0.0388,8.922831 -0.0388,8.922831 -2.2201,2.9e-5 -2.2201,2.8e-5 z m 12.29409,1.104341 c -0.0345,-0.03449 -0.0627,-0.763019 -0.0627,-1.61891 v -1.556164 h 4.29709 4.29709 l -0.0428,1.58641 -0.0427,1.586404 -4.19161,0.0325 c -2.30538,0.01787 -4.21984,0.004 -4.25435,-0.03022 z"
         id="path1103" />
    </g>
  </g>
</svg>
